# This file uses centimeters as units for non-parametric coordinates.

mtllib ramp.mtl
g default
v -0.250000 -0.601041 0.600690
v 0.250000 -0.601041 0.600690
v -0.250000 -0.459619 0.601041
v 0.250000 -0.459619 0.601041
v -0.250000 0.601041 -0.600807
v 0.250000 0.601041 -0.600807
v -0.250000 0.459619 -0.601041
v 0.250000 0.459619 -0.601041
v -0.249994 -0.601214 0.686298
v 0.250006 -0.601160 0.686264
v 0.249999 -0.459738 0.686506
v -0.250001 -0.459793 0.686540
v -0.250000 0.601180 -0.684742
v 0.250000 0.601180 -0.684742
v 0.250000 0.459758 -0.684976
v -0.250000 0.459758 -0.684976
vt 0.375000 0.000000
vt 0.625000 0.000000
vt 0.375000 0.250000
vt 0.625000 0.250000
vt 0.375000 0.500000
vt 0.625000 0.500000
vt 0.375000 0.750000
vt 0.625000 0.750000
vt 0.375000 1.000000
vt 0.625000 1.000000
vt 0.875000 0.000000
vt 0.875000 0.250000
vt 0.125000 0.000000
vt 0.125000 0.250000
vt 0.375000 0.000000
vt 0.625000 0.000000
vt 0.625000 0.250000
vt 0.375000 0.250000
vt 0.375000 0.500000
vt 0.625000 0.500000
vt 0.625000 0.750000
vt 0.375000 0.750000
vn 0.000068 -0.001710 0.999999
vn 0.000068 -0.001710 0.999999
vn 0.000068 -0.001710 0.999999
vn 0.000068 -0.001710 0.999999
vn 0.000000 0.749774 0.661694
vn 0.000000 0.749774 0.661694
vn 0.000000 0.749774 0.661694
vn 0.000000 0.749774 0.661694
vn 0.000000 0.001656 -0.999999
vn 0.000000 0.001656 -0.999999
vn 0.000000 0.001656 -0.999999
vn 0.000000 0.001656 -0.999999
vn 0.000000 -0.749742 -0.661730
vn 0.000000 -0.749742 -0.661730
vn 0.000000 -0.749742 -0.661730
vn 0.000000 -0.749742 -0.661730
vn 1.000000 0.000000 -0.000000
vn 1.000000 0.000000 0.000000
vn 1.000000 0.000000 0.000000
vn 1.000000 0.000003 -0.000004
vn -1.000000 -0.000000 -0.000000
vn -1.000000 -0.000000 0.000000
vn -1.000000 -0.000003 0.000004
vn -1.000000 -0.000000 -0.000000
vn 0.000054 -0.999999 -0.001711
vn 0.000054 -0.999999 -0.001711
vn 0.000054 -0.999999 -0.001711
vn 0.000054 -0.999999 -0.001711
vn 1.000000 0.000024 -0.000030
vn 1.000000 0.000024 -0.000030
vn -0.000054 0.999999 0.001710
vn -0.000054 0.999999 0.001710
vn -0.000054 0.999999 0.001710
vn -0.000054 0.999999 0.001710
vn -1.000000 -0.000024 0.000030
vn -1.000000 -0.000024 0.000030
vn 0.000000 0.999999 0.001656
vn 0.000000 0.999999 0.001656
vn 0.000000 0.999999 0.001656
vn 0.000000 0.999999 0.001656
vn 1.000000 0.000000 0.000000
vn 1.000000 0.000000 0.000000
vn 0.000000 -0.999999 -0.001656
vn 0.000000 -0.999999 -0.001656
vn 0.000000 -0.999999 -0.001656
vn 0.000000 -0.999999 -0.001656
vn -1.000000 0.000000 0.000000
vn -1.000000 0.000000 0.000000
s off
g pCube1
usemtl initialShadingGroup
f 9/15/1 10/16/2 11/17/3 12/18/4
f 3/3/5 4/4/6 6/6/7 5/5/8
f 13/19/9 14/20/10 15/21/11 16/22/12
f 7/7/13 8/8/14 2/10/15 1/9/16
s 1
f 2/2/17 8/11/18 6/12/19 4/4/20
s 2
f 7/13/21 1/1/22 3/3/23 5/14/24
s off
f 1/1/25 2/2/26 10/16/27 9/15/28
s 1
f 2/2/17 4/4/20 11/17/29 10/16/30
s off
f 4/4/31 3/3/32 12/18/33 11/17/34
s 2
f 3/3/23 1/1/22 9/15/35 12/18/36
s off
f 5/5/37 6/6/38 14/20/39 13/19/40
s 1
f 6/6/19 8/8/18 15/21/41 14/20/42
s off
f 8/8/43 7/7/44 16/22/45 15/21/46
s 2
f 7/7/21 5/5/24 13/19/47 16/22/48
